<svg xmlns="http://www.w3.org/2000/svg" width="512" height="512" viewBox="0 0 512 512"><defs><style>.cls-1{fill:#d32329;}.cls-2{fill:#fff;}</style></defs><title>supermetrics-icon</title><g id="Layer_2" data-name="Layer 2"><g id="Layer_1-2" data-name="Layer 1"><rect class="cls-1" width="512" height="512"/><rect class="cls-2" x="117.76" y="97.28" width="153.6" height="81.92"/><rect class="cls-2" x="117.76" y="332.8" width="230.4" height="81.92"/><path class="cls-2" d="M417,258l-5.6-8.11c-7.52-10.86-7.88-12.18-7.88-17.07s1.67-7.4,4.65-7.4c2.51,0,4.3,1.79,4.66,5a35,35,0,0,1,.34,4.92H424c0-5.11-.15-6.07-.71-8.74-1.43-7.16-6.92-11.56-14.44-11.56H117.76V297h291c10.38,0,16.23-5.91,16.23-16.53C425,273.63,422.1,265.51,417,258Z"/></g></g></svg>